<?xml version="1.0" standalone="no"?>
<!DOCTYPE svg PUBLIC "-//W3C//DTD SVG 20010904//EN"
 "http://www.w3.org/TR/2001/REC-SVG-20010904/DTD/svg10.dtd">
<svg version="1.0" xmlns="http://www.w3.org/2000/svg"
 width="1024.000000pt" height="1024.000000pt" viewBox="0 0 1024.000000 1024.000000"
 preserveAspectRatio="xMidYMid meet">

<g transform="translate(0.000000,1024.000000) scale(0.100000,-0.100000)"
fill="#000000" stroke="none">
<path d="M3190 8474 c-334 -48 -648 -178 -910 -373 -396 -297 -666 -725 -764
-1212 -38 -188 -49 -328 -43 -532 7 -225 26 -364 78 -576 143 -580 461 -1112
1050 -1756 276 -302 622 -633 1059 -1015 375 -328 1315 -1117 1379 -1157 41
-26 97 -30 144 -9 18 8 104 74 192 147 88 74 331 276 540 450 1248 1038 1811
1599 2287 2277 527 751 704 1680 459 2411 -100 297 -254 544 -486 776 -297
299 -636 478 -1048 556 -160 30 -470 37 -627 15 -482 -70 -925 -305 -1271
-676 l-103 -109 -125 122 c-151 146 -248 226 -396 323 -277 182 -562 293 -867
338 -130 20 -414 20 -548 0z m554 -374 c299 -60 586 -198 851 -411 44 -35 157
-139 251 -230 95 -91 188 -173 207 -182 40 -19 84 -22 123 -7 15 6 104 86 198
179 398 390 711 575 1101 651 415 80 876 -23 1232 -273 110 -77 329 -296 405
-402 264 -373 353 -845 262 -1390 -84 -500 -346 -1007 -803 -1550 -249 -294
-833 -860 -1307 -1264 -446 -382 -712 -608 -854 -726 -85 -72 -182 -156 -216
-187 -34 -32 -66 -58 -71 -58 -5 0 -20 12 -34 26 -13 14 -123 110 -244 212
-121 102 -295 249 -386 327 -91 77 -246 208 -344 290 -520 436 -1164 1056
-1440 1386 -300 358 -454 593 -609 926 -112 240 -173 434 -213 678 -25 155
-25 550 0 680 45 225 130 431 254 620 264 398 698 663 1190 725 103 13 334 3
447 -20z"/>
<path d="M5005 7090 c-226 -45 -393 -219 -425 -442 -15 -110 3 -226 51 -325
47 -94 152 -199 242 -242 l67 -32 0 -105 0 -104 -285 0 c-220 0 -293 -3 -318
-14 -79 -34 -110 -120 -65 -186 46 -69 58 -71 381 -68 l287 3 -2 -760 c-3
-705 -4 -762 -21 -792 -135 -249 -470 -204 -764 100 -76 79 -193 234 -193 255
0 4 35 15 78 25 81 18 122 39 122 61 0 8 -47 55 -104 105 -103 90 -287 279
-382 394 -48 57 -72 68 -93 44 -6 -8 -23 -85 -38 -173 -24 -140 -27 -185 -27
-384 -1 -230 9 -310 38 -310 15 0 101 65 125 94 13 15 19 7 67 -84 88 -168
160 -266 289 -396 156 -156 266 -230 512 -340 103 -46 215 -100 250 -120 92
-51 207 -146 260 -214 25 -33 52 -60 58 -60 7 0 24 18 38 39 69 104 230 226
403 307 390 181 481 238 654 413 118 119 182 207 265 364 31 59 60 107 65 107
4 0 10 -6 13 -14 3 -8 31 -33 61 -56 44 -34 59 -40 70 -31 46 38 57 461 17
671 l-22 115 21 79 c35 136 25 213 -36 284 -108 126 -251 107 -403 -54 -80
-84 -96 -111 -87 -148 12 -50 41 -43 119 30 150 140 227 160 273 72 34 -65 -2
-159 -119 -314 -183 -242 -424 -416 -654 -470 -94 -22 -240 -15 -308 15 -188
83 -228 291 -105 547 59 123 134 227 243 341 111 115 197 184 337 269 l95 59
110 5 c119 7 150 18 176 66 21 40 17 100 -7 125 -24 23 -56 26 -176 14 -48 -5
-78 -4 -78 2 0 5 37 24 83 42 152 62 401 189 510 261 315 209 454 470 351 660
-30 55 -60 83 -134 121 -41 22 -57 24 -175 23 -115 0 -139 -3 -208 -27 -356
-124 -650 -391 -723 -658 -21 -74 -24 -266 -5 -313 6 -16 10 -30 8 -32 -13
-13 -276 -56 -374 -61 l-123 -6 0 90 0 91 77 36 c97 46 194 142 239 236 85
177 76 381 -24 536 -118 181 -356 278 -577 234z m1832 -280 c46 -28 67 -74 67
-145 0 -93 -37 -160 -153 -276 -156 -157 -333 -258 -583 -333 -180 -54 -168
-53 -168 -8 0 58 35 182 71 253 88 176 249 348 417 446 24 14 80 39 125 54 99
35 177 38 224 9z m-1617 -51 c77 -38 120 -112 120 -204 0 -123 -94 -215 -220
-215 -126 0 -219 92 -220 218 0 170 170 277 320 201z m710 -1012 l50 -34 -103
-43 c-234 -99 -432 -213 -536 -309 -24 -23 -45 -41 -47 -41 -2 0 -4 60 -4 134
l0 133 63 13 c74 14 282 83 422 139 55 22 101 40 103 41 1 0 25 -15 52 -33z
m288 -1348 c28 -7 52 -17 52 -23 -1 -16 -80 -128 -147 -209 -114 -137 -293
-256 -443 -293 -118 -30 -230 -4 -305 71 -61 62 -79 113 -83 242 l-4 113 54
-24 c99 -44 216 -56 334 -36 105 19 246 69 349 125 59 32 108 52 120 50 11 -3
44 -10 73 -16z"/>
</g>
</svg>
